<svg width="146" height="100" viewBox="0 0 146 100" fill="none" xmlns="http://www.w3.org/2000/svg">
<path d="M12.7072 32.1173C14.4736 49.3394 13.8127 66.7157 13.8127 84.0119C13.8127 86.6845 13.6996 87.7283 12.7072 84.5033C10.9174 78.6864 11.2519 71.8166 12.2159 65.8949C14.1826 53.814 14.4382 40.7204 19.4628 29.4151C22.5366 22.4989 27.5906 12.1148 33.7108 7.30613C34.7105 6.52059 38.389 2.81568 39.7293 3.00716C42.4736 3.39921 32.6173 19.5493 32.0526 20.4487C26.5163 29.2657 20.2283 37.6918 13.8127 45.874C12.2822 47.8259 -0.0124645 63.9869 7.91697 57.9111C20.843 48.0067 33.9726 40.5746 50.0468 36.7847C53.6561 35.9338 63.0648 33.322 66.3829 37.0304C70.951 42.1359 49.4465 64.2937 46.7305 67.246C35.5749 79.3716 19.9083 92.0263 3.86366 97.0931C1.25681 97.9163 5.20843 91.553 7.05718 89.5392C24.8259 70.1839 54.6589 58.993 78.42 49.8045C99.418 41.6844 120.682 36.5391 143.15 36.5391" stroke="black" stroke-width="5" stroke-linecap="round" stroke-linejoin="round"/>
</svg>
